<?xml version="1.0" encoding="UTF-8"?>
<svg id="Layer_1" xmlns="http://www.w3.org/2000/svg" xmlns:xlink="http://www.w3.org/1999/xlink" version="1.1" viewBox="0 0 500 500">
  <!-- Generator: Adobe Illustrator 29.3.1, SVG Export Plug-In . SVG Version: 2.1.0 Build 151)  -->
  <defs>
    <style>
      .st0 {
        fill: none;
      }

      .st1 {
        fill: #fce2d4;
      }

      .st2 {
        fill: #d2691e;
      }

      .st3 {
        clip-path: url(#clippath-1);
      }

      .st4 {
        fill: #4d2305;
      }

      .st5 {
        clip-path: url(#clippath);
      }
    </style>
    <clipPath id="clippath">
      <rect class="st0" x="131" y="271.8" width="42.1" height="53.4"/>
    </clipPath>
    <clipPath id="clippath-1">
      <rect class="st0" x="406.5" y="94.3" width="71.3" height="96.5"/>
    </clipPath>
  </defs>
  <g id="_x38_88107146f">
    <g class="st5">
      <path class="st2" d="M151.4,274c-3.9,8.5-11.1,17.2-20.3,20.2.5,17.1,9.4,30.7,20.3,30.7s19.8-13.5,20.3-30.5c-7.4-3.6-15.5-13.9-20.3-20.4Z"/>
    </g>
    <path class="st2" d="M155.4,164.2c-4.9,9.7-3.9,22.9,4.5,29.6,7.4,5.9,18.1,5.3,27.3,2.9,9.2-2.4,18.2-6.3,27.7-6.1,5.4.1,11.3,1.4,15.9-1.4,6.2-3.9,6.2-13.1,3.2-19.8-2.4-5-5.7-9.3-9.8-13-4.1-3.7-8.7-6.5-13.9-8.4-18.3-7.4-45.3-3-54.9,16.2Z"/>
    <path class="st4" d="M249.8,270.1c-1.4,3.2-3,6.2-4.9,9.1-1.9,2.9-4.1,5.6-6.5,8.1-2.4,2.5-5,4.7-7.8,6.8-2.8,2-5.8,3.8-8.9,5.3-3.1,1.5-6.3,2.7-9.7,3.6-3.3.9-6.7,1.5-10.2,1.8-3.4.3-6.9.3-10.3,0-3.4-.3-6.8-.9-10.2-1.8-4.4-1.2-8.6-2.9-12.5-5.2-4-2.2-7.6-4.8-10.8-7.9-2.4-2.2-4.6-4.7-6.6-7.4-1.5,1.8-3.1,3.5-4.7,5-6.7,6.3-14.5,10.7-23.4,13.1-4.4,1.2-9,1.9-13.6,2-4.6.1-9.2-.3-13.7-1.2-4.5-1-8.9-2.4-13-4.4-4.2-2-8-4.4-11.6-7.4-7.3-6-12.8-13.3-16.6-21.9-3.7-8.6-5.2-17.6-4.5-26.9.7-9.2,3.5-17.8,8.5-25.6,4.8-7.7,11.2-13.7,19.1-18,.6-.3,1.3-.4,2-.3.7.2,1.3.5,1.7,1.1.4.6.6,1.3.5,2,0,.7-.4,1.3-1,1.8h0c-6,5-10.7,11-14.1,18.1-3.3,6.8-5,14-5.1,21.5-.1,7.4,1.4,14.5,4.5,21.3,3.1,6.7,7.5,12.4,13.1,17.2,5.7,4.7,12.2,7.9,19.4,9.8,7.3,1.8,14.6,1.9,21.9.4,4.9-1.1,9.6-2.8,14-5.2,4.4-2.4,8.4-5.4,11.9-9-7.4-5.3-14-11.4-19.7-18.5-1.7-2.2-3.3-4.3-4.7-6.4-.8-1.2-1.5-2.5-2-3.8-.5-1.4-.8-2.7-1-4.2-.1-1.4-.1-2.9,0-4.3.2-1.4.6-2.8,1.1-4.1s1.2-2.6,2.1-3.7c.8-1.2,1.8-2.2,2.9-3.1,1.1-.9,2.3-1.7,3.6-2.3,1.3-.6,2.6-1.1,4.1-1.4,6.1-1.3,12.3-1.9,18.6-1.9,6,0,12,.6,17.9,1.9,1.4.3,2.7.7,4,1.4,1.3.6,2.5,1.4,3.6,2.3s2.1,2,2.9,3.1c.8,1.2,1.5,2.4,2.1,3.7s.9,2.7,1.1,4.1c.2,1.4.2,2.8.1,4.3-.2,1.4-.5,2.8-.9,4.2-.5,1.3-1.1,2.6-1.9,3.8-1.8,2.7-3.8,5.4-5.9,7.9-5.5,6.6-11.7,12.3-18.7,17.2h0s0,0,0,0h0c3.6,4.2,7.9,7.7,12.6,10.5,4.8,2.8,9.9,4.8,15.3,6,7.3,1.5,14.6,1.3,21.9-.4,7.2-1.8,13.6-5.1,19.3-9.8,5.6-4.8,10-10.5,13.1-17.2,1.5-3.4,2.7-6.9,3.4-10.5.8-3.6,1.1-7.3,1.1-11,0-3.7-.5-7.4-1.4-11s-2.1-7.1-3.7-10.4c-3.4-7-8.1-13-14.1-18h0c-.5-.5-.9-1.1-1-1.8,0-.7,0-1.4.5-2,.4-.6,1-1,1.7-1.2.7-.2,1.4,0,2,.3,7.9,4.4,14.3,10.4,19.2,18.1,4.9,7.8,7.8,16.4,8.5,25.6.7,9.3-.8,18.3-4.6,26.9Z"/>
    <path class="st1" d="M177.5,233.5c-.7,2.7-5.2,3.8-10.1,2.6-4.9-1.2-8.3-4.4-7.6-7.1s5.2-3.8,10.1-2.6c4.9,1.2,8.3,4.4,7.6,7.1Z"/>
    <path class="st4" d="M156.1,275.9h0s0,0,0,0c0,0,0,0,0,0Z"/>
    <path class="st4" d="M181.8,178.2c.6-3.6,2.3-6.4,5.2-8.5,1.4-1.1,3-2,4.7-2.6,1.7-.6,3.4-.9,5.3-1,1.8,0,3.6.2,5.3.7,1.7.5,3.3,1.3,4.8,2.3,3,2,4.9,4.7,5.7,8.2,0,.2,0,.4-.2.6s-.4.2-.6,0h0c-2.5-1.3-5.1-2.3-7.8-3-4.7-1.3-9.4-1.1-14,.4-2.7.9-5.2,2-7.6,3.4h0c-.2.1-.4.1-.6,0-.2-.1-.3-.3-.3-.5Z"/>
    <path class="st4" d="M91.1,178.2c.6-3.6,2.3-6.4,5.2-8.5,1.4-1.1,3-2,4.7-2.6s3.4-.9,5.2-1c1.8,0,3.6.2,5.3.7,1.7.5,3.3,1.3,4.8,2.3,3,2,4.9,4.7,5.7,8.2,0,.2,0,.4-.2.6-.2.1-.4.2-.6,0h0c-2.5-1.3-5.1-2.3-7.8-3-4.7-1.3-9.4-1.1-14,.4-2.6.9-5.2,2-7.6,3.4h0c-.2.1-.4.1-.6,0-.2-.1-.3-.3-.2-.5Z"/>
    <path class="st2" d="M50.7,99.2c20.3-.2,37.7,10.4,45.8,34.4-2.3,1.3-4.4,2.9-6.4,4.6-5.6-6.8-16.2-10.8-23.6-11.9.5,17.8-6,38.8-22.7,43.1-2.4.6-4.9.8-7.3.7s-4.9-.6-7.2-1.5-4.5-2.1-6.4-3.6c-2-1.5-3.7-3.3-5.1-5.4-14.8-21.5,5.8-60.3,33-60.5Z"/>
    <path class="st2" d="M314.4,151c1.5,0,2.9-.3,4.3-.8,1.4-.6,2.6-1.4,3.6-2.4,1-1.1,1.8-2.3,2.4-3.6.6-1.4.8-2.8.8-4.3v-30.7c-7.7,1.6-15.1,4-22.3,7.1v23.6c0,1.5.3,2.9.8,4.3.6,1.4,1.4,2.6,2.4,3.6,1.1,1,2.3,1.8,3.6,2.4,1.4.6,2.8.8,4.3.8Z"/>
    <path class="st2" d="M344.4,158.5c1.5,0,2.9-.3,4.3-.8,1.4-.6,2.6-1.4,3.6-2.4,1.1-1,1.8-2.3,2.4-3.6.6-1.4.8-2.8.8-4.3v-39.4c-3.9-.5-7.8-.7-11.8-.7s-7,.2-10.5.7v39.4c0,1.5.3,2.9.8,4.3.6,1.4,1.4,2.6,2.4,3.6,1,1.1,2.3,1.8,3.6,2.4,1.4.6,2.8.8,4.3.8Z"/>
    <path class="st2" d="M373.2,151c1.5,0,2.9-.3,4.3-.8,1.4-.6,2.6-1.4,3.6-2.4s1.8-2.3,2.4-3.6c.6-1.4.8-2.8.8-4.3v-24.8c-7.2-2.8-14.7-4.9-22.3-6.2v31c0,1.5.3,2.9.8,4.3.6,1.4,1.4,2.6,2.4,3.6s2.2,1.8,3.6,2.4c1.4.6,2.8.8,4.3.8Z"/>
    <path class="st2" d="M359.2,173.3c-10.3,13.1-5.9,29.9.1,44.5,7.3,17.9,22.1,33.1,40.6,38.8,4.2,1.3,8.5,2,12.9,2.3,4.4.2,8.7,0,13-.9,4.3-.8,8.4-2.2,12.4-4.1,4-1.9,7.6-4.2,11-7,14.7-12,11-42.3.8-56.1-12.9-17.5-32.5-31.5-54.8-32.2-12.1-.4-24.6,3.1-33.3,11.5-1,1-2,2-2.8,3.1Z"/>
    <path class="st4" d="M403.1,279.2c-.3-.3-.7-.5-1.2-.5s-.8.1-1.2.5h0c-4.1,3.9-8.9,6.5-14.3,7.8-5.4,1.3-10.7,1.2-16-.3-5.3-1.5-9.8-4.3-13.5-8.3-3.2-3.6-5.3-7.8-6.1-12.6,4.5-3.2,8.3-7,11.4-11.6.4-.5.7-1.1.9-1.7.2-.6.4-1.3.4-1.9,0-.7,0-1.3,0-2,0-.7-.3-1.3-.5-1.9-.3-.6-.6-1.2-1-1.7s-.8-1-1.3-1.4c-.5-.4-1.1-.8-1.7-1.1-.6-.3-1.2-.5-1.8-.6-5.6-1.2-11.2-1.2-16.8,0-.6.1-1.3.3-1.9.6s-1.2.6-1.7,1.1c-.5.4-1,.9-1.4,1.4-.4.5-.7,1.1-1,1.7-.2.6-.4,1.2-.5,1.9-.1.7-.1,1.3,0,2,0,.7.2,1.3.4,1.9.2.6.5,1.2.9,1.8.7,1,1.4,2,2.2,3,2.7,3.3,5.8,6.2,9.2,8.7-.8,4.8-2.9,9-6.1,12.5-3.7,4.1-8.2,6.9-13.5,8.3-5.3,1.5-10.6,1.6-16,.3-5.5-1.3-10.2-3.9-14.3-7.8h0c-.3-.3-.7-.5-1.1-.5-.4,0-.8.1-1.1.4-.3.3-.5.6-.6,1,0,.4,0,.8.3,1.2,3.8,5.5,8.9,9.2,15.3,11.2,3.1,1,6.3,1.5,9.6,1.5,3.3,0,6.5-.4,9.7-1.3,6.5-1.9,11.9-5.5,16-10.8,1.7-2.1,3-4.4,3.9-6.9.9,2.5,2.2,4.8,3.9,6.9,4.2,5.3,9.5,9,16,10.8,3.2.9,6.4,1.3,9.7,1.3,3.3,0,6.5-.6,9.6-1.5,6.4-2,11.5-5.7,15.3-11.2.2-.3.3-.7.3-1.1,0-.4-.2-.7-.5-1Z"/>
    <path class="st1" d="M360.8,246.1c-.3,1.2-2.4,1.8-4.6,1.2-2.2-.6-3.8-2-3.5-3.2.3-1.2,2.4-1.8,4.6-1.2,2.2.6,3.8,2,3.5,3.2Z"/>
    <path class="st4" d="M410.1,223.3c0,1.1-.2,2.1-.6,3.1-.4,1-1,1.9-1.8,2.6-.8.8-1.6,1.4-2.6,1.8-1,.4-2,.6-3.1.6s-2.1-.2-3.1-.6c-1-.4-1.9-1-2.6-1.8s-1.3-1.6-1.8-2.6c-.4-1-.6-2-.6-3.1s.2-2.1.6-3.1c.4-1,1-1.9,1.8-2.6s1.6-1.4,2.6-1.8c1-.4,2-.6,3.1-.6s2.1.2,3.1.6c1,.4,1.9,1,2.6,1.8.8.8,1.3,1.6,1.8,2.6.4,1,.6,2,.6,3.1Z"/>
    <path class="st4" d="M296.4,223.3c0,1.1-.2,2.1-.6,3.1-.4,1-1,1.9-1.8,2.6s-1.6,1.4-2.6,1.8c-1,.4-2,.6-3.1.6s-2.1-.2-3.1-.6c-1-.4-1.9-1-2.6-1.8s-1.4-1.6-1.8-2.6c-.4-1-.6-2-.6-3.1s.2-2.1.6-3.1c.4-1,1-1.9,1.8-2.6s1.6-1.4,2.6-1.8c1-.4,2-.6,3.1-.6s2.1.2,3.1.6c1,.4,1.9,1,2.6,1.8s1.4,1.6,1.8,2.6c.4,1,.6,2,.6,3.1Z"/>
    <g class="st3">
      <path class="st2" d="M462.2,188.9c25.8-41.4,4.9-94,.9-94.4-19.9,8.5-38.7,19-56.3,31.7,12.2,7.4,23,16.5,32.4,27.2,9.5,10.7,17.1,22.5,23,35.5Z"/>
    </g>
    <path class="st4" d="M50.5,408.1v-36.9c0-4.5,2.2-6.8,6.7-6.8h10.1c1,0,2.1,0,3.3.3,1.2.2,2.4.4,3.7.7,4.6,1.1,8.2,3.6,10.7,7.8.9,1.5,1.7,3.2,2.2,4.9.5,1.7.8,3.4.8,5.2s-.3,3.5-.8,5.1c-.5,1.7-1.2,3.2-2.1,4.7-.9,1.5-2,2.8-3.3,4-1.3,1.2-2.7,2.2-4.3,2.9-1.4.6-2.8,1.1-4.2,1.4-1.4.2-3.2.4-5.5.4h-5.7v7.9c0,2-.6,3.6-1.7,4.8-1.1,1.2-2.5,1.8-4.3,1.8s-3.2-.6-4.3-1.8c-1.1-1.2-1.6-2.8-1.6-4.8v-1.3ZM66.8,390.9c1.7,0,3,0,3.7-.2.7-.1,1.5-.4,2.2-.8,1.2-.7,2.1-1.6,2.8-2.8.7-1.2,1.1-2.5,1.1-3.8s-.4-2.8-1.2-4.1c-.8-1.3-1.9-2.3-3.1-2.9-1.1-.5-2.9-.8-5.5-.8h-4.6v15.3h4.6Z"/>
    <path class="st4" d="M121.9,415.4c-4.6-.1-6.8-2.4-6.8-6.8v-37.4c.1-4.5,2.4-6.8,6.8-6.8h21.3c1.8,0,3.2.5,4.3,1.5,1.1.9,1.6,2.2,1.6,3.8s-.5,3-1.6,4c-1.1.9-2.5,1.4-4.3,1.4h-16.4v9.5h13c1.6,0,2.9.5,3.9,1.3,1,.8,1.5,2,1.5,3.5s-.5,2.7-1.5,3.6c-1,.9-2.3,1.3-3.9,1.3h-13v10.4h16.8c1.8,0,3.2.6,4.3,1.5,1.1.9,1.7,2.2,1.7,3.8s-.6,3-1.7,4c-1.1.9-2.5,1.4-4.3,1.4h-21.7Z"/>
    <path class="st4" d="M186.5,408.1v-33h-9.5c-1.8,0-3.3-.5-4.4-1.5-1.1-.9-1.6-2.2-1.6-3.9s.5-2.9,1.6-3.8c1.1-1,2.6-1.5,4.4-1.5h30.7c1.8,0,3.2.5,4.3,1.5,1.1.9,1.7,2.2,1.7,3.8s-.6,3-1.7,4c-1.1.9-2.5,1.4-4.3,1.4h-9.5v34.3c0,2-.6,3.6-1.7,4.8-1.1,1.2-2.5,1.8-4.3,1.8s-3.1-.6-4.2-1.8c-1.1-1.2-1.6-2.8-1.6-4.8v-1.3Z"/>
    <path class="st4" d="M234.1,415.4"/>
    <path class="st4" d="M280.1,408.1v-36.9c0-4.5,2.2-6.8,6.7-6.8h10.1c1,0,2.1,0,3.3.3,1.2.2,2.4.4,3.7.7,4.6,1.1,8.2,3.6,10.7,7.8.9,1.5,1.7,3.2,2.2,4.9.5,1.7.8,3.4.8,5.2s-.3,3.5-.8,5.1c-.5,1.7-1.2,3.2-2.1,4.7-.9,1.5-2,2.8-3.3,4-1.3,1.2-2.7,2.2-4.3,2.9-1.4.6-2.8,1.1-4.2,1.4-1.4.2-3.2.4-5.5.4h-5.7v7.9c0,2-.6,3.6-1.7,4.8-1.1,1.2-2.5,1.8-4.3,1.8s-3.2-.6-4.3-1.8c-1.1-1.2-1.6-2.8-1.6-4.8v-1.3ZM296.4,390.9c1.7,0,3,0,3.7-.2.7-.1,1.5-.4,2.2-.8,1.2-.7,2.1-1.6,2.8-2.8.7-1.2,1.1-2.5,1.1-3.8s-.4-2.8-1.2-4.1c-.8-1.3-1.9-2.3-3.1-2.9-1.1-.5-2.9-.8-5.5-.8h-4.6v15.3h4.6Z"/>
    <path class="st4" d="M375.1,410.5l-1.8-3.8h-20.5l-1.6,3.7-.5,1.1c-1.3,2.8-3.2,4.2-5.8,4.2s-2.9-.5-4.1-1.6c-1.2-1.1-1.8-2.4-1.8-4s.3-2.1.9-3.3l.5-1.2,16.9-37.9c1.1-2.4,3-3.6,5.6-3.6s2.3.3,3.3,1c1,.6,1.8,1.5,2.3,2.7l17.4,37.7c.6,1.2.9,2.1,1.1,2.7.2.6.3,1.2.3,1.9,0,1.5-.6,2.9-1.8,4-1.2,1.1-2.6,1.7-4.1,1.7-2.6,0-4.5-1.4-5.8-4.1l-.5-1.2ZM369.2,396.6l-6.2-14.7-6,14.7h12.3Z"/>
    <path class="st4" d="M420,415.4c-4.6-.1-6.8-2.4-6.8-6.8v-38.2c0-2,.6-3.6,1.7-4.8,1-1.2,2.5-1.8,4.3-1.8s3.2.6,4.3,1.8c1,1.2,1.6,2.8,1.6,4.7v34.3h15.2c1.8,0,3.2.6,4.3,1.5,1.1.9,1.6,2.2,1.6,3.8s-.5,3-1.6,4c-1.1.9-2.5,1.4-4.3,1.4h-20.2Z"/>
  </g>
</svg>